<?xml version="1.0" standalone="no"?><!DOCTYPE svg PUBLIC "-//W3C//DTD SVG 1.1//EN" "http://www.w3.org/Graphics/SVG/1.1/DTD/svg11.dtd"><svg t="1599791867914" class="icon" viewBox="0 0 1024 1024" version="1.1" xmlns="http://www.w3.org/2000/svg" p-id="3067" xmlns:xlink="http://www.w3.org/1999/xlink" width="30" height="30"><defs><style type="text/css"></style></defs><path d="M914.285714 0H36.571429C14.628571 0 0 14.628571 0 36.571429v731.428571c0 21.942857 14.628571 36.571429 36.571429 36.571429h877.714285c21.942857 0 36.571429-14.628571 36.571429-36.571429V36.571429c0-21.942857-14.628571-36.571429-36.571429-36.571429zM877.714286 731.428571H73.142857V73.142857h804.571429v658.285714zM694.857143 877.714286h-438.857143c-21.942857 0-36.571429 14.628571-36.571429 36.571428s14.628571 36.571429 36.571429 36.571429h438.857143c21.942857 0 36.571429-14.628571 36.571428-36.571429s-14.628571-36.571429-36.571428-36.571428z" p-id="3068" fill="#771284"></path><path d="M182.857143 585.142857c7.314286 0 21.942857 0 29.257143-7.314286l190.171428-190.171428 117.028572 117.028571c7.314286 7.314286 21.942857 7.314286 29.257143 7.314286 7.314286 0 21.942857-7.314286 29.257142-14.628571l219.428572-292.571429c14.628571-14.628571 7.314286-36.571429-7.314286-51.2-14.628571-14.628571-36.571429-7.314286-51.2 7.314286L541.257143 416.914286 431.542857 299.885714c-14.628571-7.314286-43.885714-7.314286-58.514286 0l-219.428571 219.428572c-7.314286 14.628571-7.314286 43.885714 0 58.514285 7.314286 7.314286 21.942857 7.314286 29.257143 7.314286z" p-id="3069" fill="#771284"></path></svg>