<?xml version="1.0" standalone="no"?><!DOCTYPE svg PUBLIC "-//W3C//DTD SVG 1.1//EN" "http://www.w3.org/Graphics/SVG/1.1/DTD/svg11.dtd"><svg t="1599791876829" class="icon" viewBox="0 0 1024 1024" version="1.1" xmlns="http://www.w3.org/2000/svg" p-id="3234" xmlns:xlink="http://www.w3.org/1999/xlink" width="30" height="30"><defs><style type="text/css"></style></defs><path d="M943.542857 226.742857l-219.428571-219.428571c-7.314286 0-21.942857-7.314286-29.257143-7.314286h-585.142857c-21.942857 0-36.571429 14.628571-36.571429 36.571429v950.857142c0 21.942857 14.628571 36.571429 36.571429 36.571429h804.571428c21.942857 0 36.571429-14.628571 36.571429-36.571429v-731.428571c0-7.314286-7.314286-21.942857-7.314286-29.257143zM877.714286 950.857143H146.285714V73.142857h533.942857L877.714286 270.628571V950.857143z" p-id="3235" fill="#771284"></path><path d="M292.571429 402.285714c0 21.942857 14.628571 36.571429 36.571428 36.571429h365.714286c21.942857 0 36.571429-14.628571 36.571428-36.571429S716.8 365.714286 694.857143 365.714286h-365.714286c-21.942857 0-36.571429 14.628571-36.571428 36.571428zM694.857143 585.142857h-365.714286c-21.942857 0-36.571429 14.628571-36.571428 36.571429s14.628571 36.571429 36.571428 36.571428h365.714286c21.942857 0 36.571429-14.628571 36.571428-36.571428S716.8 585.142857 694.857143 585.142857z" p-id="3236" fill="#771284"></path></svg>