<?xml version="1.0" standalone="no"?><!DOCTYPE svg PUBLIC "-//W3C//DTD SVG 1.1//EN" "http://www.w3.org/Graphics/SVG/1.1/DTD/svg11.dtd"><svg t="1599791790601" class="icon" viewBox="0 0 1170 1024" version="1.1" xmlns="http://www.w3.org/2000/svg" p-id="2441" width="34.27734375" height="30" xmlns:xlink="http://www.w3.org/1999/xlink"><defs><style type="text/css"></style></defs><path d="M1045.942857 219.428571H804.571429v438.857143h-73.142858V73.142857H73.142857c-43.885714 0-73.142857 29.257143-73.142857 73.142857v585.142857c0 43.885714 29.257143 73.142857 73.142857 73.142858h73.142857c0 80.457143 65.828571 146.285714 146.285715 146.285714s146.285714-65.828571 146.285714-146.285714h292.571428c0 80.457143 65.828571 146.285714 146.285715 146.285714s146.285714-65.828571 146.285714-146.285714h73.142857c43.885714 0 73.142857-29.257143 73.142857-73.142858V438.857143l-124.342857-219.428572zM292.571429 877.714286c-43.885714 0-73.142857-29.257143-73.142858-73.142857s29.257143-73.142857 73.142858-73.142858 73.142857 29.257143 73.142857 73.142858-29.257143 73.142857-73.142857 73.142857z m585.142857 0c-43.885714 0-73.142857-29.257143-73.142857-73.142857s29.257143-73.142857 73.142857-73.142858 73.142857 29.257143 73.142857 73.142858-29.257143 73.142857-73.142857 73.142857z m0-438.857143V292.571429h124.342857l80.457143 146.285714H877.714286z" p-id="2442" fill="#222222"></path></svg>